<?xml version="1.0" encoding="utf-8"?>
<!-- Generator: Adobe Illustrator 28.1.0, SVG Export Plug-In . SVG Version: 6.00 Build 0)  -->
<svg version="1.1" id="Layer_1" xmlns="http://www.w3.org/2000/svg" xmlns:xlink="http://www.w3.org/1999/xlink" x="0px" y="0px"
	 viewBox="0 0 566.9 143.4" style="enable-background:new 0 0 566.9 143.4;" xml:space="preserve">
<style type="text/css">
	.st0{fill:#FFFFFF;}
</style>
<g>
	<path class="st0" d="M85.6,73.2v17.7H76V46.1h9.6v17.5c0,0.6,0.5,1,1,1h14.8c0.6,0,1-0.5,1-1V46.1h9.6v44.8h-9.6V73.3
		c0-0.5-0.4-0.9-0.9-0.9H86.4C86,72.4,85.6,72.8,85.6,73.2"/>
	<path class="st0" d="M153.5,46.1h9.6V73c0,9.9-8,18-18,18c-9.9,0-18-8.1-18-18V46.1h9.6V73c0,4.6,3.8,8.4,8.4,8.4s8.4-3.8,8.4-8.4
		V46.1z"/>
	<path class="st0" d="M221.8,46.1l0.3,44.8h-9.6l-0.2-28.8l-10.7,9.6c-1,1.1-2.7,1.1-3.7,0l-10.7-9.6l-0.3,28.8h-9.6l0.3-44.8h7.5
		l12.7,11.7c1,1.1,2.7,1.1,3.7,0l12.7-11.7H221.8z"/>
	<path class="st0" d="M312.3,46.1h9.6v44.8h-7.3l-18-24.8c-0.3-0.4-1-0.2-1,0.3v24.4h-9.6V46.1h8l17.2,23.7c0.4,0.5,1.2,0.3,1.2-0.4
		V46.1z"/>
</g>
<polygon class="st0" points="337,46.1 337,90.9 343.9,90.9 343.9,72.1 358.5,72.1 358.5,65.5 343.9,65.5 343.9,52.8 368.5,52.8 
	368.5,46.1 "/>
<rect x="379" y="46.1" class="st0" width="6.9" height="44.8"/>
<polygon class="st0" points="400.3,46.1 400.3,90.9 422,90.9 422,84.3 407.2,84.3 407.2,46.1 "/>
<g>
	<path class="st0" d="M471.7,46.1l0.3,44.8h-6.9l-0.2-30.3c0-0.5-0.6-0.8-1-0.4l-11.2,12c-0.5,0.5-1.3,0.5-1.8,0l-11.3-12.2
		c-0.3-0.3-0.8-0.1-0.9,0.3l-0.3,30.5h-6.9l0.3-44.8h4.7l14.5,15.4c0.4,0.4,1,0.4,1.4,0l14.5-15.4H471.7z"/>
	<path class="st0" d="M265.6,67.6c-2.8,3.4-7.1,5.6-11.9,5.6s-9.1-2.2-11.9-5.6l-8.5,23.3h10.3L247,82h13.5l3.2,8.9h10.4L265.6,67.6
		z"/>
	<path class="st0" d="M259,57.9c0,2.9-2.3,5.2-5.2,5.2c-2.9,0-5.2-2.3-5.2-5.2s2.3-5.2,5.2-5.2C256.6,52.7,259,55,259,57.9"/>
	<path class="st0" d="M484.9,51.1h0.6c0.6,0,1.2-0.2,1.2-0.8c0-0.5-0.3-0.8-1.1-0.8c-0.3,0-0.5,0-0.7,0.1V51.1z M484.9,54.1h-1.2
		v-5.2c0.5-0.1,1.1-0.2,2-0.2c1,0,1.4,0.2,1.8,0.4c0.3,0.2,0.5,0.6,0.5,1.1c0,0.6-0.4,1-1.1,1.2v0.1c0.5,0.2,0.8,0.6,0.9,1.3
		c0.2,0.8,0.2,1.1,0.4,1.3h-1.3c-0.2-0.2-0.2-0.7-0.4-1.3c-0.1-0.6-0.4-0.8-1.1-0.8h-0.6V54.1z M481.7,51.3c0,2.3,1.7,4.1,4,4.1
		c2.2,0,3.9-1.8,3.9-4.1c0-2.3-1.6-4.2-3.9-4.2C483.4,47.2,481.7,49.1,481.7,51.3 M490.9,51.3c0,2.9-2.3,5.2-5.2,5.2
		c-2.9,0-5.2-2.3-5.2-5.2c0-2.9,2.3-5.2,5.2-5.2C488.6,46.1,490.9,48.5,490.9,51.3"/>
</g>
</svg>
