<?xml version="1.0" encoding="UTF-8"?>
<svg id="Layer_2" data-name="Layer 2" xmlns="http://www.w3.org/2000/svg" viewBox="0 0 414.9 45">
  <defs>
    <style>
      .cls-1 {
        fill: #fff;
        stroke-width: 0px;
      }
    </style>
  </defs>
  <g id="Layer_1-2" data-name="Layer 1">
    <g>
      <path class="cls-1" d="M9.6,27.2v17.7H0V.1h9.6v17.5c0,.6.5,1,1,1h14.8c.6,0,1-.5,1-1V.1h9.6v44.8h-9.6v-17.6c0-.5-.4-.9-.9-.9h-15.1c-.4,0-.8.4-.8.8"/>
      <path class="cls-1" d="M77.5.1h9.6v26.9c0,9.9-8,18-18,18s-18-8.1-18-18V.1h9.6v26.9c0,4.6,3.8,8.4,8.4,8.4s8.4-3.8,8.4-8.4V.1Z"/>
      <path class="cls-1" d="M145.8.1l.3,44.8h-9.6l-.2-28.8-10.7,9.6c-1,1.1-2.7,1.1-3.7,0l-10.7-9.6-.3,28.8h-9.6L101.6.1h7.5l12.7,11.7c1,1.1,2.7,1.1,3.7,0L138.2.1s7.6,0,7.6,0Z"/>
      <path class="cls-1" d="M236.3.1h9.6v44.8h-7.3l-18-24.8c-.3-.4-1-.2-1,.3v24.4h-9.6V.1h8l17.2,23.7c.4.5,1.2.3,1.2-.4V.1h-.1Z"/>
    </g>
    <polygon class="cls-1" points="261 .1 261 44.9 267.9 44.9 267.9 26.1 282.5 26.1 282.5 19.5 267.9 19.5 267.9 6.8 292.5 6.8 292.5 .1 261 .1"/>
    <rect class="cls-1" x="303" y=".1" width="6.9" height="44.8"/>
    <polygon class="cls-1" points="324.3 .1 324.3 44.9 346 44.9 346 38.3 331.2 38.3 331.2 .1 324.3 .1"/>
    <path class="cls-1" d="M395.7.1l.3,44.8h-6.9l-.2-30.3c0-.5-.6-.8-1-.4l-11.2,12c-.5.5-1.3.5-1.8,0l-11.3-12.2c-.3-.3-.8-.1-.9.3l-.3,30.5h-6.9L355.8,0h4.7l14.5,15.4c.4.4,1,.4,1.4,0l14.5-15.4h4.8v.1Z"/>
    <path class="cls-1" d="M189.6,21.6c-2.8,3.4-7.1,5.6-11.9,5.6s-9.1-2.2-11.9-5.6l-8.5,23.3h10.3l3.4-8.9h13.5l3.2,8.9h10.4l-8.5-23.3Z"/>
    <path class="cls-1" d="M183,11.9c0,2.9-2.3,5.2-5.2,5.2s-5.2-2.3-5.2-5.2,2.3-5.2,5.2-5.2,5.2,2.3,5.2,5.2"/>
    <path class="cls-1" d="M408.9,5.1h.6c.6,0,1.2-.2,1.2-.8,0-.5-.3-.8-1.1-.8-.3,0-.5,0-.7.1v1.5ZM408.9,8.1h-1.2V2.9c.5-.1,1.1-.2,2-.2,1,0,1.4.2,1.8.4.3.2.5.6.5,1.1,0,.6-.4,1-1.1,1.2v.1c.5.2.8.6.9,1.3.2.8.2,1.1.4,1.3h-1.3c-.2-.2-.2-.7-.4-1.3-.1-.6-.4-.8-1.1-.8h-.6v2.1h.1ZM405.7,5.3c0,2.3,1.7,4.1,4,4.1s3.9-1.8,3.9-4.1-1.6-4.2-3.9-4.2c-2.3.1-4,2-4,4.2M414.9,5.3c0,2.9-2.3,5.2-5.2,5.2s-5.2-2.3-5.2-5.2,2.3-5.2,5.2-5.2,5.2,2.4,5.2,5.2"/>
  </g>
</svg>